<svg width="33" height="22" viewBox="0 0 33 22" fill="none" xmlns="http://www.w3.org/2000/svg">
<path d="M16.3771 8.1174C18.6186 8.1174 20.4358 6.30026 20.4358 4.0587C20.4358 1.81714 18.6186 0 16.3771 0C14.1355 0 12.3184 1.81714 12.3184 4.0587C12.3184 6.30026 14.1355 8.1174 16.3771 8.1174Z" fill="currentColor"/>
<path d="M25.3708 7.14905C26.9246 7.14905 28.1842 5.88944 28.1842 4.33563C28.1842 2.78183 26.9246 1.52222 25.3708 1.52222C23.817 1.52222 22.5574 2.78183 22.5574 4.33563C22.5574 5.88944 23.817 7.14905 25.3708 7.14905Z" fill="currentColor"/>
<path d="M7.38336 7.14905C8.93717 7.14905 10.1968 5.88944 10.1968 4.33563C10.1968 2.78183 8.93717 1.52222 7.38336 1.52222C5.82956 1.52222 4.56995 2.78183 4.56995 4.33563C4.56995 5.88944 5.82956 7.14905 7.38336 7.14905Z" fill="currentColor"/>
<path d="M10.9808 11.0231C11.3037 10.8848 11.3037 10.4235 10.9808 10.2391C9.92004 9.63948 8.67475 9.31663 7.38335 9.31663C3.60138 9.31663 0.465108 12.13 0.00389229 15.8198C-0.0422293 16.3271 0.326743 16.7422 0.834081 16.7422H5.07727C5.26175 16.7422 5.40012 16.65 5.49236 16.5116C6.6454 14.1133 8.58251 12.1762 10.9808 11.0231ZM32.7502 15.7737C32.289 12.13 29.1527 9.27051 25.3708 9.27051C24.0794 9.27051 22.8341 9.59336 21.7733 10.1929C21.4504 10.3774 21.4504 10.8386 21.7733 10.977C24.1255 12.13 26.0626 14.0672 27.2618 16.4194C27.354 16.5577 27.4924 16.65 27.6768 16.65H31.92C32.4274 16.7422 32.7963 16.281 32.7502 15.7737ZM27.0773 20.6625C26.5699 16.5116 23.6643 13.0525 19.7901 11.7611C19.4672 11.6688 19.0982 11.715 18.8676 11.9917L17.0228 13.8365C16.6538 14.2055 16.1003 14.2055 15.7775 13.8365L13.9326 11.9917C13.702 11.7611 13.333 11.6688 13.0102 11.7611C9.08985 13.0525 6.18419 16.5116 5.67685 20.6625C5.58461 21.3544 6.13806 22.0001 6.82989 22.0001H25.832C26.5699 22.0001 27.1234 21.3544 27.0773 20.6625Z" fill="currentColor"/>
</svg>