<svg width="22" height="22" viewBox="0 0 22 22" fill="none" xmlns="http://www.w3.org/2000/svg">
<path d="M10.12 0.336163L0.586666 8.10526C0.219999 8.40407 0 8.85229 0 9.30051L1.46667 20.5059C1.46667 21.3277 2.12667 22 2.93333 22H6.6C7.40667 22 8.06667 21.3277 8.06667 20.5059V17.6672C8.06667 16.0985 9.16667 14.6791 10.7067 14.5297C12.4667 14.3803 13.9333 15.725 13.9333 17.5178V20.5059C13.9333 21.3277 14.5933 22 15.4 22H19.0667C19.8733 22 20.5333 21.3277 20.5333 20.5059L22 9.30051C22 8.85229 21.78 8.40407 21.4133 8.10526L11.88 0.336163C11.3667 -0.112054 10.6333 -0.112054 10.12 0.336163Z" fill="currentColor"/>
</svg>