<svg width="56" height="40" viewBox="0 0 56 40" fill="none" xmlns="http://www.w3.org/2000/svg">
<path fill-rule="evenodd" clip-rule="evenodd" d="M22 13H34C34.5304 13 35.0391 13.2107 35.4142 13.5858C35.7893 13.9609 36 14.4696 36 15V25C36 25.5304 35.7893 26.0391 35.4142 26.4142C35.0391 26.7893 34.5304 27 34 27H22C21.4696 27 20.9609 26.7893 20.5858 26.4142C20.2107 26.0391 20 25.5304 20 25V15C20 14.4696 20.2107 13.9609 20.5858 13.5858C20.9609 13.2107 21.4696 13 22 13ZM21 9H35C35.2652 9 35.5196 9.10536 35.7071 9.29289C35.8946 9.48043 36 9.73478 36 10C36 10.2652 35.8946 10.5196 35.7071 10.7071C35.5196 10.8946 35.2652 11 35 11H21C20.7348 11 20.4804 10.8946 20.2929 10.7071C20.1054 10.5196 20 10.2652 20 10C20 9.73478 20.1054 9.48043 20.2929 9.29289C20.4804 9.10536 20.7348 9 21 9ZM21 29H35C35.2652 29 35.5196 29.1054 35.7071 29.2929C35.8946 29.4804 36 29.7348 36 30C36 30.2652 35.8946 30.5196 35.7071 30.7071C35.5196 30.8946 35.2652 31 35 31H21C20.7348 31 20.4804 30.8946 20.2929 30.7071C20.1054 30.5196 20 30.2652 20 30C20 29.7348 20.1054 29.4804 20.2929 29.2929C20.4804 29.1054 20.7348 29 21 29Z" fill="#CFCED1"/>
</svg>
