<svg width="64" height="40" viewBox="0 0 64 40" fill="none" xmlns="http://www.w3.org/2000/svg">
<rect width="63.625" height="40" rx="20" fill="white"/>
<path d="M43.0438 9.0183C42.575 8.66205 41.975 8.6058 41.45 8.8683L36.425 11.3996C36.2375 11.4933 36.125 11.6808 36.125 11.9058V29.587C36.125 29.8683 35.9375 30.112 35.675 30.1683C35.3187 30.2433 35 29.962 35 29.6245V11.8683C35 11.6621 34.8875 11.4558 34.6813 11.3621L29.1313 8.58705C28.7375 8.3808 28.2688 8.43705 27.9125 8.7183C27.65 8.9433 27.5 9.2808 27.5 9.6183V26.7183C27.5 26.9245 27.3875 27.1308 27.1812 27.2246C27.1062 27.2621 27.0312 27.2995 26.9562 27.337L21.6687 29.9995C21.5 30.0933 21.35 30.0183 21.3125 29.9808C21.2563 29.9433 21.1437 29.8496 21.1437 29.6621V13.5933C21.1437 13.087 21.425 12.637 21.875 12.412L25.4375 10.6121C25.7188 10.4808 25.8312 10.1433 25.6812 9.86205C25.55 9.5808 25.2125 9.4683 24.9312 9.6183L21.35 11.4183C20.525 11.8308 20 12.6558 20 13.5933V29.6245C20 30.112 20.2062 30.562 20.5812 30.8621C21.05 31.2183 21.65 31.2745 22.175 31.0121L27.4813 28.3683C27.8563 28.1808 28.2875 28.1808 28.6625 28.3683L29.9 28.9871L34.5125 31.2933C34.55 31.312 34.6062 31.3308 34.6437 31.3496C34.9437 31.462 35.2625 31.5371 35.5625 31.5371C35.9375 31.5371 36.3125 31.4433 36.65 31.2745L42.275 28.462C43.1 28.0495 43.625 27.2058 43.625 26.2871V10.2558C43.625 9.7683 43.4188 9.29955 43.0438 9.0183Z" fill="#CFCED1"/>
</svg>
