<svg width="16" height="20" viewBox="0 0 16 20" fill="none" xmlns="http://www.w3.org/2000/svg">
<path d="M7.77778 8.88889C8.65681 8.88889 9.51609 8.62823 10.247 8.13987C10.9779 7.6515 11.5475 6.95738 11.8839 6.14526C12.2203 5.33315 12.3083 4.43952 12.1368 3.57738C11.9653 2.71524 11.542 1.92332 10.9205 1.30175C10.2989 0.680183 9.50698 0.256891 8.64485 0.0854007C7.78271 -0.0860891 6.88908 0.00192569 6.07696 0.338315C5.26485 0.674705 4.57072 1.24436 4.08236 1.97525C3.594 2.70613 3.33333 3.56542 3.33333 4.44445C3.33333 5.62319 3.80159 6.75365 4.63508 7.58714C5.46858 8.42064 6.59904 8.88889 7.77778 8.88889ZM14.4444 20C14.7391 20 15.0217 19.8829 15.2301 19.6746C15.4385 19.4662 15.5556 19.1836 15.5556 18.8889C15.5556 16.8261 14.7361 14.8478 13.2775 13.3892C11.8189 11.9306 9.84057 11.1111 7.77778 11.1111C5.71498 11.1111 3.73667 11.9306 2.27806 13.3892C0.819442 14.8478 3.0738e-08 16.8261 0 18.8889C0 19.1836 0.117063 19.4662 0.325437 19.6746C0.533811 19.8829 0.816426 20 1.11111 20H14.4444Z" fill="currentColor"/>
</svg>